<svg width="37" height="37" viewBox="0 0 37 37" fill="none" xmlns="http://www.w3.org/2000/svg">
<path d="M18.5 23.125C21.0543 23.125 23.125 21.0543 23.125 18.5C23.125 15.9457 21.0543 13.875 18.5 13.875C15.9457 13.875 13.875 15.9457 13.875 18.5C13.875 21.0543 15.9457 23.125 18.5 23.125Z" fill="#1CF00A"/>
<path d="M20.0417 6.27308V3.08337H16.9584V6.27308C14.2453 6.61896 11.7239 7.85597 9.78993 9.78993C7.85597 11.7239 6.61896 14.2453 6.27308 16.9584H3.08337V20.0417H6.27308C6.61871 22.7549 7.85563 25.2764 9.78964 27.2104C11.7236 29.1445 14.2452 30.3814 16.9584 30.727V33.9167H20.0417V30.727C22.7549 30.3814 25.2764 29.1445 27.2104 27.2104C29.1445 25.2764 30.3814 22.7549 30.727 20.0417H33.9167V16.9584H30.727C30.3811 14.2453 29.1441 11.7239 27.2102 9.78993C25.2762 7.85597 22.7548 6.61896 20.0417 6.27308V6.27308ZM18.5 27.75C13.3987 27.75 9.25004 23.6014 9.25004 18.5C9.25004 13.3987 13.3987 9.25004 18.5 9.25004C23.6014 9.25004 27.75 13.3987 27.75 18.5C27.75 23.6014 23.6014 27.75 18.5 27.75Z" fill="#1CF00A"/>
</svg>
