<svg width="37" height="37" viewBox="0 0 37 37" fill="none" xmlns="http://www.w3.org/2000/svg">
<path d="M35.4334 0.18335H1.6521C0.839697 0.18335 0.18335 0.839697 0.18335 1.6521V35.4334C0.18335 36.2458 0.839697 36.9021 1.6521 36.9021H35.4334C36.2458 36.9021 36.9021 36.2458 36.9021 35.4334V1.6521C36.9021 0.839697 36.2458 0.18335 35.4334 0.18335ZM33.9646 33.9646H25.5147V22.6828H30.2881L31.0042 17.1428H25.5147V13.6041C25.5147 11.9976 25.9599 10.9052 28.2594 10.9052H31.1923V5.9482C30.6829 5.87935 28.9433 5.72788 26.9146 5.72788C22.6828 5.72788 19.7866 8.31196 19.7866 13.0533V17.1382H15.004V22.6782H19.7912V33.9646H3.12085V3.12085H33.9646V33.9646Z" fill="url(#paint0_linear_229_37)"/>
<defs>
<linearGradient id="paint0_linear_229_37" x1="18.5427" y1="0.18335" x2="18.5427" y2="36.9021" gradientUnits="userSpaceOnUse">
<stop stop-color="#0610FF"/>
<stop offset="1" stop-color="#1387F1"/>
</linearGradient>
</defs>
</svg>
