<svg width="42" height="35" viewBox="0 0 42 35" fill="none" xmlns="http://www.w3.org/2000/svg">
<path d="M42 4.1753C40.4273 4.87203 38.7591 5.32936 37.0509 5.53209C38.8301 4.46569 40.1963 2.77699 40.8396 0.764929C39.1482 1.76864 37.2977 2.47582 35.3679 2.85591C33.7961 1.18132 31.5568 0.134766 29.0783 0.134766C24.3195 0.134766 20.4612 3.99286 20.4612 8.75133C20.4612 9.42677 20.5375 10.0843 20.6843 10.7152C13.523 10.3557 7.1738 6.92531 2.92376 1.71206C2.1822 2.98469 1.75727 4.46503 1.75727 6.04397C1.75727 9.03351 3.27863 11.6708 5.59059 13.2161C4.22223 13.1733 2.88397 12.8037 1.68755 12.1382C1.68705 12.1743 1.68705 12.2104 1.68705 12.2467C1.68705 16.4216 4.65724 19.9043 8.59901 20.6959C7.33013 21.041 5.99916 21.0915 4.70777 20.8435C5.8042 24.2669 8.98652 26.758 12.757 26.8277C9.80798 29.1387 6.09246 30.5163 2.05554 30.5163C1.35991 30.5163 0.674133 30.4755 0 30.3959C3.8133 32.8408 8.34258 34.2673 13.2087 34.2673C29.0583 34.2673 37.7252 21.1372 37.7252 9.75063C37.7252 9.3769 37.717 9.00529 37.7003 8.63583C39.3872 7.41632 40.8432 5.90585 42 4.1753" fill="#55ACEE"/>
</svg>
